<svg width="537" height="683" viewBox="0 0 537 683" fill="none" xmlns="http://www.w3.org/2000/svg">
<path d="M287.741 440C287.072 440.687 286.474 441.43 285.705 442.055C284.352 442.972 282.272 450.079 281.8 452.977C280.039 463.12 277.854 472.479 275.718 480.426C274.834 483.717 273.964 486.693 273.143 489.454C268.432 480.5 260.307 466.475 249.38 452.747C249.343 453.46 249.38 454.192 249.239 454.935C248.938 456.132 251.279 461.21 252.457 463.098C256.517 469.759 259.924 476.168 262.674 481.767C266.619 489.81 269.071 495.899 270.186 498.771C269.577 500.094 269.755 562.127 270.212 598.299C222.616 599.77 195 613.58 195 613.58C210.939 619.465 227.951 622.808 244.941 624.551C244.421 625.034 243.912 625.517 243.403 625.977C242.622 626.724 241.801 627.449 240.943 628.177C239.249 629.522 237.51 631.353 236.061 633.2L234.46 636.113C233.773 637.216 233.539 638.338 233.174 639.441C232.532 641.678 232.324 643.889 231.677 645.861C231.053 647.86 230.009 649.588 228.471 650.888L228.419 650.94V650.951C227.509 651.423 226.792 652.311 225.684 652.415C224.763 652.761 223.448 652.772 222.27 652.95C219.907 653.229 217.548 654.005 215.271 654.681C211.102 655.9 206.948 657.237 202.81 658.56L203.237 658.367L201.766 658.902C201.673 658.917 201.595 658.943 201.517 658.969V658.98H201.505L201.569 659.173C206.239 658.181 210.931 657.237 215.553 656.108C217.905 655.566 220.149 654.949 222.538 654.774C223.741 654.663 224.86 654.696 226.201 654.306C227.553 654.139 228.586 653.136 229.716 652.474C230.128 652.144 230.414 651.687 230.771 651.315C230.626 652.144 230.615 652.954 230.537 653.823C230.47 654.837 230.414 655.514 230.277 656.401C230.213 658.337 229.831 659.656 228.972 660.722C228.114 661.692 226.524 662.338 225.38 663C222.931 664.333 221.665 665.73 221.616 665.63C221.616 665.63 223.296 664.868 225.863 664.155C227.096 663.646 228.776 663.561 230.351 662.108C231.815 660.685 232.372 658.307 232.498 656.665C232.576 655.777 232.621 654.659 232.621 653.894C232.658 653.043 232.576 652.166 232.71 651.378C232.873 649.952 232.985 648.659 233.234 647.5C233.371 647.169 233.583 646.876 233.683 646.545C234.441 644.297 234.765 642.083 235.285 640.021C235.56 639.014 235.82 637.926 236.314 637.138L237.852 634.173C239.182 632.572 240.453 631.123 242.199 629.633C243.02 628.912 243.863 628.184 244.658 627.348C245.453 626.483 246.26 625.832 247.029 624.815C247.04 624.788 247.066 624.762 247.081 624.751C252.312 625.234 257.532 625.591 262.733 625.792C262.547 626.327 262.35 626.821 262.25 627.419C261.83 629.325 261.418 631.257 260.972 633.241L260.014 635.949L259.779 636.636C259.858 636.525 259.519 636.956 259.438 637.093L258.505 638.316C257.398 640.118 255.875 641.251 254.534 642.625C253.129 644.163 251.476 645.334 250.458 647.191C249.202 648.882 248.392 650.598 247.857 652.263C247.3 654.02 246.668 655.354 245.736 656.509C244.93 657.657 243.744 658.482 242.782 659.229C241.764 659.968 240.891 660.589 240.163 661.124C238.654 662.13 238.012 663.007 238.082 663.033C238.023 662.97 238.744 662.246 240.371 661.458C241.166 661.038 242.132 660.514 243.239 659.92C244.346 659.27 245.661 658.645 246.709 657.327C247.835 656.193 248.741 654.503 249.366 652.95C250.034 651.274 250.982 649.736 252.048 648.351C252.869 646.876 254.407 645.757 255.708 644.446C255.485 645.133 254.779 645.895 254.69 647.165C254.069 649.733 254.482 653.013 254.924 656.179C255.481 659.27 255.882 662.305 255.659 664.597C255.678 665.756 255.273 666.633 255.173 667.343C255.002 668.052 254.912 668.435 254.912 668.435C254.912 668.435 255.135 668.104 255.511 667.521C255.786 666.886 256.692 666.083 256.893 664.85C257.168 663.642 257.651 662.179 257.502 660.615C257.554 659.024 257.279 657.449 257.142 655.837C256.792 654.031 256.491 652.33 256.283 650.725C257.339 654.488 259.553 658.872 261.789 663.197C264.312 667.737 266.786 672.258 268.076 675.817C268.718 677.623 268.978 679.139 268.967 680.268C268.689 681.36 268.548 681.996 268.548 681.996C268.548 681.996 268.822 681.401 269.343 680.357C269.566 679.213 269.788 677.463 269.305 675.501C268.51 671.511 266.166 666.763 263.77 662.149C261.247 657.609 258.698 653.11 257.235 649.603C256.521 647.812 256.116 646.333 256.012 645.215C256.064 644.717 256.101 644.364 256.127 644.067C257.602 642.655 259.304 641.295 260.348 639.653L261.243 638.394C261.44 638.13 261.466 638.163 261.778 637.595L262.027 636.818L263.045 633.768C263.406 631.81 263.781 629.864 264.138 627.995C264.227 627.285 264.438 626.594 264.661 625.899C268.562 626.011 272.415 626.089 276.242 626.078C276.216 626.483 276.164 626.902 276.13 627.348C276.052 628.377 275.997 629.054 275.87 629.942C275.792 631.862 275.424 633.196 274.566 634.262C273.708 635.217 272.118 635.89 270.962 636.525C268.514 637.859 267.251 639.271 267.214 639.185C267.214 639.185 268.878 638.409 271.46 637.699C272.694 637.175 274.358 637.101 275.948 635.648C277.397 634.225 277.969 631.836 278.096 630.194C278.174 629.332 278.218 628.184 278.218 627.437C278.23 626.966 278.256 626.52 278.256 626.078C283.498 626.011 288.669 625.847 293.722 625.595C293.488 626.509 293.291 627.385 293.039 628.363C292.444 630.22 292.392 632.23 292.392 634.314C292.444 636.376 292.132 638.565 292.492 640.675C292.764 642.822 293.027 644.996 293.299 647.184C293.982 651.583 295.294 655.703 293.262 658.984C291.411 662.16 288.079 664.4 285.656 666.496C284.378 667.551 283.271 668.617 282.443 669.698C281.633 670.779 280.934 671.786 280.774 672.775C280.191 674.669 280.975 675.776 280.774 675.762C280.96 675.788 280.344 674.595 281.127 672.89C281.373 672.002 282.168 671.121 283.041 670.222C283.958 669.319 285.129 668.428 286.418 667.477C288.956 665.478 292.533 663.776 294.941 659.924C296.13 658.003 296.546 655.588 296.405 653.325C296.234 650.974 295.676 648.978 295.502 646.831C295.193 644.706 294.881 642.573 294.58 640.485C294.164 638.39 294.436 636.343 294.335 634.333C294.324 632.338 294.19 630.38 294.632 628.626C294.833 627.519 294.985 626.527 295.156 625.52C299.098 625.283 302.914 625.011 306.677 624.681C306.908 625.862 307.261 627.007 307.439 628.203L308.609 633.326L310.437 638.197C312.042 641.288 314.357 644.097 315.769 646.857C316.619 648.128 317.08 649.766 317.418 651.456C317.927 653.188 317.89 654.447 317.864 656.238C317.812 659.545 317.307 663.23 319.072 666.878C319.87 668.249 321.104 669.992 322.668 671.021C324.384 672.102 325.963 672.381 327.565 673.046C330.704 674.223 333.643 676.059 336.678 677.545L345.859 682.085L345.985 681.933L345.933 681.843L344.436 680.851L344.74 681.119L337.213 676.427C334.211 674.762 331.429 672.789 328.252 671.34C326.766 670.59 324.908 670.174 323.738 669.356C322.542 668.469 321.702 667.335 320.814 665.771C319.592 663.126 319.922 659.678 320.063 656.249C320.104 654.622 319.974 652.437 319.439 650.888C319.072 649.235 318.626 647.578 317.585 645.965C315.754 642.7 313.655 640.233 311.901 637.346L309.854 632.747L308.457 627.928C308.175 626.795 307.706 625.714 307.361 624.584C309.65 624.38 311.916 624.202 314.112 623.96C316.463 626.096 318.585 628.478 321.691 630.153L321.728 630.179L321.769 630.19C323.266 630.536 324.756 631.041 326.283 631.26L330.682 631.691C332.056 631.769 333.505 631.911 334.951 632.226C335.716 632.42 336.403 632.353 336.949 632.709L338.74 633.527C340.037 633.969 340.813 635.202 341.906 636.09C342.961 637.212 343.968 638.457 345.201 639.222C345.836 639.679 346.293 640.062 347.111 640.552C347.898 640.835 348.686 641.202 349.462 641.217C351.027 641.433 352.45 641.329 353.865 641.407L356.863 642.105L358.379 642.462C358.491 642.477 358.606 642.503 358.721 642.529C358.862 642.581 358.962 642.64 359.152 642.629C358.936 642.388 358.684 642.376 358.431 642.246L356.993 641.685L354.081 640.567L354.002 640.552C352.539 640.222 351.001 640.21 349.656 639.917C348.942 639.854 348.422 639.486 347.824 639.27L346.234 637.911C345.012 637.019 344.291 635.823 343.336 634.82C342.203 633.828 341.289 632.394 339.788 631.781L337.603 630.714C336.879 630.294 336.024 630.294 335.363 630.105C334.98 630.02 334.546 630.02 334.156 629.953C334.419 629.901 334.817 629.826 335.415 629.722C336.429 629.581 337.908 629.176 339.624 629.198C341.341 629.046 343.31 629.087 345.498 629.213C347.646 629.187 349.971 629.57 352.271 629.748C356.926 630.153 361.634 630.677 365.215 630.562C368.774 630.462 371.126 630.02 371.126 630.02C371.126 630.02 368.748 629.8 365.293 629.295C361.819 628.823 357.205 628.088 352.502 627.538C350.113 627.437 347.776 627.181 345.509 627.285C343.269 627.233 341.163 627.605 339.357 627.984C337.525 628.173 336.281 629.039 335.289 629.355C334.575 629.648 334.193 629.826 333.988 629.912C332.974 629.722 331.967 629.529 330.886 629.507L326.513 629.191C325.101 629.039 323.805 628.619 322.441 628.363C320.283 627.196 318.12 625.45 315.984 623.748C348.939 620.137 372.627 613.602 372.627 613.602C338.161 602.568 307.706 598.589 282.142 598.217C283.223 560.062 285.772 487.477 289.806 479.207C292.552 473.627 295.966 467.207 300.027 460.538C301.197 458.65 303.549 453.575 303.244 452.375C303.092 451.636 303.144 450.919 303.092 450.191C294.573 460.909 287.789 471.78 282.959 480.303C285.11 468.749 287.05 454.798 287.741 440Z" fill="#2FB86E"/>
<path d="M138 200.967C152.667 216.35 166.889 244.065 172.167 256L178 244.728C172 233.059 148.833 206.714 138 195V200.967Z" fill="#2FB86E" stroke="#2FB86E"/>
<path d="M134.148 168.552C131.409 160.454 127.05 152.153 121.115 144.612C115.307 136.898 107.74 130.24 99.1756 124.808C90.5519 119.481 80.9137 115.374 70.764 113.511C60.7284 111.471 50.2701 111.501 41.0927 113.575C31.9068 115.641 24.1582 119.823 19.7914 123.904C17.534 125.741 16.1179 128.044 15.2428 129.341C14.427 130.73 14 131.487 14 131.487C14 131.487 14.6637 131.972 15.9234 132.931C17.1409 133.818 18.8191 135.686 20.5143 137.27C24.0229 140.954 27.6837 145.913 31.6405 151.363C39.5117 162.055 49.8897 173.495 63.5523 181.813C70.3286 185.927 77.6376 189.598 85.382 192.099C93.0122 194.765 100.926 196.467 108.269 197.435C114.88 198.216 129.963 200.21 134.6 199.982C131.041 194.503 127.266 188.994 122.941 183.811C120.113 179.992 116.765 176.676 113.654 173.212C110.517 169.764 106.912 166.917 103.703 163.859C100.245 161.092 96.6942 158.663 93.418 156.233C89.8671 154.269 86.4726 152.402 83.3782 150.683C80.0302 149.453 76.9612 148.313 74.2473 147.294C71.563 146.078 68.9716 146.095 66.9425 145.575C62.8125 144.823 60.4537 144.413 60.4537 144.413C60.4537 144.413 62.8421 144.658 67.0229 145.106C69.09 145.474 71.749 145.279 74.5305 146.306C77.3586 147.113 80.5629 148.063 84.0546 149.09C87.3899 150.615 90.9704 152.258 94.7834 154.007C98.2921 156.212 102.109 158.477 105.893 161.07C109.401 163.956 113.345 166.634 116.82 169.946C120.27 173.25 123.99 176.443 127.181 180.131C130.969 184.157 134.507 188.352 137.885 192.572C137.898 191.939 138.037 191.301 137.991 190.629C138.033 184.449 136.815 176.722 134.148 168.552Z" fill="#2FB86E"/>
<path d="M102.69 342.836C117.793 339.934 140.227 342.131 149.556 343.593L144.981 335.63C135.53 334.712 110.428 338.493 99.0586 340.499L102.69 342.836Z" fill="#2FB86E" stroke="#2FB86E"/>
<path d="M81.4566 332.487C75.4562 330.983 68.6984 330.385 61.7859 331.044C54.8177 331.558 47.8036 333.555 41.1444 336.64C34.5262 339.802 28.2537 344.059 23.1459 349.505C17.9748 354.813 13.8978 361.189 11.5665 367.586C9.22681 373.984 8.73772 380.337 9.51111 384.592C9.74545 386.685 10.5919 388.448 11.0385 389.488C11.5648 390.529 11.8577 391.085 11.8577 391.085C11.8577 391.085 12.4132 390.871 13.49 390.48C14.5065 390.087 16.2999 389.797 17.9276 389.386C21.543 388.693 25.9943 388.407 30.8597 388.133C40.4479 387.53 51.4727 385.694 61.8838 380.637C67.0409 378.125 72.1366 375.115 76.6908 371.382C81.3005 367.782 85.435 363.633 88.8988 359.544C91.9631 355.827 99.0822 347.43 100.759 344.518C96.0314 344.539 91.2012 344.679 86.3538 345.281C82.9226 345.507 79.5937 346.245 76.2676 346.782C72.9418 347.341 69.7973 348.421 66.6799 349.175C63.6422 350.196 60.7737 351.406 58.0128 352.448C55.4271 353.84 52.9617 355.174 50.7039 356.384C48.6449 357.94 46.7492 359.361 45.067 360.614C43.2756 361.771 42.2712 363.354 41.1606 364.385C39.0859 366.604 37.9129 367.879 37.9129 367.879C37.9129 367.879 38.9972 366.522 40.9067 364.153C41.9397 363.039 42.8626 361.345 44.5764 360.054C46.1747 358.649 48.0077 357.072 49.9996 355.349C52.2335 353.916 54.6355 352.381 57.1927 350.746C59.9084 349.474 62.7809 348.038 65.8407 346.751C68.9702 345.746 72.1443 344.395 75.5202 343.577C78.8811 342.771 82.2811 341.758 85.7749 341.26C89.7078 340.532 93.6458 340.021 97.5364 339.618C97.1557 339.363 96.8222 339.028 96.3953 338.793C92.651 336.348 87.4726 334.063 81.4566 332.487Z" fill="#2FB86E"/>
<path d="M257.328 142.263C261.207 163.16 257.976 194.144 255.876 207.023L266.92 200.77C268.271 187.718 263.261 152.995 260.588 137.265L257.328 142.263Z" fill="#2FB86E" stroke="#2FB86E"/>
<path d="M271.812 113.009C273.942 104.73 274.827 95.3961 273.976 85.8377C273.326 76.2036 270.626 66.4932 266.421 57.2637C262.109 48.0904 256.28 39.3854 248.797 32.2796C241.506 25.0876 232.731 19.3984 223.911 16.1214C215.089 12.8328 206.314 12.102 200.427 13.1341C197.532 13.4399 195.088 14.5945 193.647 15.2026C192.204 15.9209 191.433 16.321 191.433 16.321C191.433 16.321 191.724 17.0905 192.255 18.5819C192.79 19.9901 193.175 22.4709 193.729 24.7239C194.655 29.7262 195.012 35.8802 195.348 42.6062C196.099 55.8619 198.541 71.1135 205.439 85.5449C208.867 92.6934 212.983 99.7615 218.103 106.087C223.037 112.489 228.735 118.238 234.356 123.06C239.467 127.327 251.01 137.238 255.019 139.581C255.031 133.047 254.879 126.371 254.089 119.666C253.807 114.923 252.815 110.316 252.101 105.715C251.358 101.114 249.893 96.7591 248.877 92.4444C247.493 88.2376 245.846 84.2631 244.429 80.4387C242.528 76.8533 240.705 73.4348 239.053 70.3041C236.92 67.4453 234.973 64.8132 233.256 62.4777C231.673 59.9921 229.493 58.5904 228.078 57.0466C225.029 54.1603 223.278 52.5283 223.278 52.5283C223.278 52.5283 225.144 54.0385 228.401 56.6977C229.932 58.135 232.265 59.425 234.034 61.8045C235.961 64.0254 238.126 66.5722 240.49 69.3397C242.45 72.4393 244.551 75.7719 246.789 79.32C248.523 83.084 250.483 87.066 252.234 91.3056C253.597 95.6392 255.437 100.037 256.537 104.71C257.622 109.361 258.992 114.069 259.651 118.901C260.623 124.343 261.295 129.789 261.818 135.169C262.175 134.645 262.64 134.187 262.968 133.599C266.38 128.446 269.582 121.31 271.812 113.009Z" fill="#2FB86E"/>
<path d="M413.681 376.335C399.678 381.759 377.742 383.564 368.524 383.789L374.31 390.641C383.549 389.873 407.005 381.858 417.577 377.946L413.681 376.335Z" fill="#2FB86E" stroke="#2FB86E"/>
<path d="M518.238 372.028C518.074 370.936 517.892 369.028 517.019 367.156C515.478 363.181 511.834 358.127 506.602 353.958C501.382 349.804 494.725 346.547 487.682 344.749C480.63 342.803 473.203 342.429 466.044 343.175C458.896 344.002 451.991 345.916 445.902 349.049C439.795 352.033 434.434 355.988 430.182 360.317C425.944 364.713 422.777 369.278 420.901 373.248C420.681 373.654 420.559 374.098 420.387 374.515C423.836 372.856 427.391 371.289 431.072 369.882C434.234 368.505 437.61 367.61 440.836 366.577C444.088 365.532 447.426 365.046 450.558 364.276C453.761 363.785 456.913 363.545 459.84 363.199C462.817 363.265 465.617 363.325 468.204 363.371C470.742 363.807 473.086 364.196 475.155 364.541C477.252 364.753 478.881 365.696 480.328 366.1C483.123 367.107 484.727 367.683 484.727 367.683C484.727 367.683 483.088 367.227 480.218 366.423C478.763 366.132 477.103 365.315 475.031 365.264C472.979 365.07 470.667 364.857 468.144 364.602C465.635 364.746 462.897 364.89 460.016 365.044C457.159 365.577 454.153 366.037 451.097 366.74C448.089 367.703 444.923 368.399 441.843 369.653C438.786 370.879 435.613 371.968 432.63 373.539C428.264 375.514 424.155 377.876 420.176 380.271C423.073 381.85 433.327 385.236 437.774 386.773C442.782 388.439 448.357 389.782 454.053 390.454C459.757 391.254 465.572 391.164 471.169 390.622C482.482 389.536 492.646 385.434 500.963 381.044C505.185 378.78 509.057 376.743 512.444 375.474C514.003 374.979 515.673 374.318 516.703 374.118C517.805 373.915 518.388 373.797 518.388 373.797C518.388 373.797 518.325 373.17 518.238 372.028Z" fill="#2FB86E"/>
<path d="M420.736 201.139C412.905 213.953 396.574 228.709 389.388 234.485L398.145 236.415C405.019 230.194 418.785 209.581 424.81 200.053L420.736 201.139Z" fill="#2FB86E" stroke="#2FB86E"/>
<path d="M501.187 134.218C500.393 133.45 499.089 132.045 497.259 131.088C493.621 128.865 487.656 127.064 480.967 126.928C474.298 126.798 467.031 128.254 460.343 131.103C453.559 133.84 447.432 138.054 442.197 142.993C437.02 147.992 432.697 153.706 429.762 159.893C426.723 165.973 424.866 172.371 424.117 178.392C423.42 184.458 423.676 190.008 424.597 194.301C424.669 194.758 424.842 195.185 424.958 195.62C426.691 192.208 428.563 188.804 430.633 185.451C432.309 182.436 434.447 179.675 436.383 176.894C438.332 174.09 440.688 171.676 442.709 169.163C444.956 166.827 447.314 164.722 449.429 162.67C451.834 160.914 454.095 159.261 456.179 157.727C458.46 156.532 460.558 155.417 462.412 154.435C464.206 153.33 466.073 153.089 467.468 152.532C470.3 151.634 471.924 151.118 471.924 151.118C471.924 151.118 470.345 151.75 467.577 152.855C466.244 153.507 464.429 153.866 462.753 155.085C461.005 156.177 459.038 157.412 456.879 158.741C454.973 160.38 452.884 162.157 450.69 164.029C448.743 166.187 446.635 168.378 444.634 170.793C442.828 173.384 440.736 175.86 439.051 178.727C437.367 181.557 435.508 184.35 434.091 187.41C431.823 191.63 429.992 196.002 428.286 200.321C431.547 199.817 441.749 196.279 446.216 194.8C451.206 193.081 456.451 190.763 461.384 187.838C466.401 185.009 470.967 181.406 475.085 177.576C483.412 169.842 488.996 160.411 492.938 151.872C494.917 147.509 496.756 143.539 498.676 140.474C499.614 139.135 500.539 137.595 501.236 136.81C501.988 135.98 502.38 135.532 502.38 135.532C502.38 135.532 501.949 135.072 501.187 134.218Z" fill="#2FB86E"/>
<path d="M394.833 319.407V330.486C394.819 356.453 386.41 381.719 370.862 402.517C355.315 423.314 333.46 438.529 308.559 445.892C283.658 453.254 257.044 452.37 232.686 443.371C208.328 434.372 187.532 417.741 173.399 395.957C159.265 374.173 152.552 348.404 154.261 322.494C155.97 296.583 166.008 271.919 182.879 252.18C199.751 232.44 222.551 218.683 247.879 212.961C273.208 207.238 299.707 209.856 323.426 220.425" stroke="#2FB86E" stroke-width="24" stroke-linecap="round" stroke-linejoin="round"/>
<path d="M394.833 234.152L274.417 354.689L238.292 318.564" stroke="#2FB86E" stroke-width="24" stroke-linecap="round" stroke-linejoin="round"/>
</svg>
